<svg width="18" height="16" viewBox="0 0 18 16" fill="none" xmlns="http://www.w3.org/2000/svg">
<path fill-rule="evenodd" clip-rule="evenodd" d="M1.24138 6.83289C5.90571 4.80072 9.01599 3.46099 10.5722 2.8137C15.0156 0.965546 15.9389 0.644503 16.5407 0.633902C16.673 0.631571 16.969 0.664373 17.1607 0.819923C17.3225 0.951267 17.3671 1.12869 17.3884 1.25322C17.4097 1.37775 17.4362 1.66143 17.4151 1.88309C17.1744 4.41306 16.1325 10.5526 15.6024 13.3863C15.3781 14.5853 14.9365 14.9873 14.509 15.0266C13.5798 15.1121 12.8743 14.4126 11.9743 13.8227C10.5661 12.8996 9.77059 12.3249 8.40368 11.4242C6.82398 10.3832 7.84803 9.81103 8.7483 8.87597C8.9839 8.63126 13.0778 4.90759 13.157 4.5698C13.1669 4.52755 13.1761 4.37007 13.0825 4.28692C12.989 4.20376 12.8509 4.2322 12.7513 4.25481C12.61 4.28687 10.3604 5.77379 6.00238 8.71558C5.36383 9.15405 4.78545 9.36769 4.26724 9.3565C3.69596 9.34416 2.59704 9.03349 1.78011 8.76793C0.778109 8.44222 -0.0182615 8.27002 0.0510845 7.71686C0.0872042 7.42874 0.483971 7.13409 1.24138 6.83289Z" fill="#191919"/>
</svg>
